<?xml version="1.0" encoding="UTF-8" standalone="no"?>
<!DOCTYPE svg PUBLIC "-//W3C//DTD SVG 1.1//EN" "http://www.w3.org/Graphics/SVG/1.1/DTD/svg11.dtd">
<svg width="100%" height="100%" viewBox="0 0 1241 1749" version="1.1" xmlns="http://www.w3.org/2000/svg" xmlns:xlink="http://www.w3.org/1999/xlink" xml:space="preserve" xmlns:serif="http://www.serif.com/" style="fill-rule:evenodd;clip-rule:evenodd;stroke-linecap:round;stroke-linejoin:round;stroke-miterlimit:1.5;">
    <g transform="matrix(1,0,0,1.33333,0,-387.238)">
        <path d="M961.443,452.433L961.443,1407.12C961.443,1430.34 936.304,1449.19 905.341,1449.19L326.833,1449.19C295.869,1449.19 270.73,1430.34 270.73,1407.12L270.73,452.433C270.73,429.21 295.869,410.357 326.833,410.357L905.341,410.357C936.304,410.357 961.443,429.21 961.443,452.433Z" style="fill:none;stroke:rgb(35,31,32);stroke-width:22.98px;"/>
    </g>
    <g transform="matrix(0.531746,0,0,0.163655,291.167,219.526)">
        <path d="M961.443,929.775C961.443,1216.45 889.812,1449.19 801.582,1449.19L430.591,1449.19C342.362,1449.19 270.73,1216.45 270.73,929.775C270.73,643.1 342.362,410.357 430.591,410.357L801.582,410.357C889.812,410.357 961.443,643.1 961.443,929.775Z" style="fill:none;stroke:rgb(35,31,32);stroke-width:26.48px;"/>
    </g>
    <g transform="matrix(0.509409,0,0,0.150105,312.643,239.163)">
        <path d="M961.443,929.775C961.443,1216.45 892.862,1449.19 808.389,1449.19L423.784,1449.19C339.312,1449.19 270.73,1216.45 270.73,929.775C270.73,643.1 339.312,410.357 423.784,410.357L808.389,410.357C892.862,410.357 961.443,643.1 961.443,929.775Z" style="fill:none;stroke:rgb(35,31,32);stroke-width:27.74px;"/>
    </g>
    <g transform="matrix(0.902458,0,0,0.765698,60.3467,403.929)">
        <path d="M961.443,454.812L961.443,1404.74C961.443,1429.27 944.542,1449.19 923.725,1449.19L308.449,1449.19C287.631,1449.19 270.73,1429.27 270.73,1404.74L270.73,454.812C270.73,430.276 287.631,410.357 308.449,410.357L923.725,410.357C944.542,410.357 961.443,430.276 961.443,454.812Z" style="fill:none;stroke:rgb(35,31,32);stroke-width:12.45px;"/>
    </g>
    <g transform="matrix(0.841401,0,0,0.558353,96.4454,688.988)">
        <path d="M961.443,467.085L961.443,1392.46C961.443,1423.77 944.575,1449.19 923.798,1449.19L308.375,1449.19C287.599,1449.19 270.73,1423.77 270.73,1392.46L270.73,467.085C270.73,435.776 287.599,410.357 308.375,410.357L923.798,410.357C944.575,410.357 961.443,435.776 961.443,467.085Z" style="fill:none;stroke:rgb(35,31,32);stroke-width:14.59px;"/>
    </g>
    <g transform="matrix(0.319529,0,0,0.300598,420.901,480.811)">
        <path d="M858.871,414.82L858.871,520.643C858.871,549.846 836.567,573.554 809.095,573.554L401.484,573.554C374.011,573.554 351.707,549.846 351.707,520.643L351.707,414.82C351.707,385.618 374.011,361.909 401.484,361.909L809.095,361.909C836.567,361.909 858.871,385.618 858.871,414.82Z" style="fill:none;stroke:rgb(35,31,32);stroke-width:16.71px;"/>
    </g>
    <g transform="matrix(0.764828,0,0,0.764828,237.979,266.41)">
        <g transform="matrix(1,0,0,1,412.383,482.663)">
            <text x="0px" y="0px" style="font-family:'Arial-BoldMT', 'Arial', sans-serif;font-weight:700;font-size:50px;fill:rgb(35,31,32);">i</text>
        </g>
        <g transform="matrix(1,0,0,1,426.275,482.663)">
            <text x="0px" y="0px" style="font-family:'Arial-BoldMT', 'Arial', sans-serif;font-weight:700;font-size:66.667px;fill:rgb(35,31,32);">zone</text>
        </g>
    </g>
    <g transform="matrix(0.961237,-0.275725,0.275725,0.961237,-230.751,301.435)">
        <path d="M489.859,951.197L377.449,1063.61" style="fill:none;stroke:rgb(35,31,32);stroke-width:25px;"/>
    </g>
    <g transform="matrix(-0.961237,-0.275725,-0.275725,0.961237,1454.91,301.435)">
        <path d="M489.859,951.197L377.449,1063.61" style="fill:none;stroke:rgb(35,31,32);stroke-width:25px;"/>
    </g>
    <g transform="matrix(0.707107,-0.707107,0.707107,0.707107,-397.215,976.497)">
        <path d="M489.859,951.197L377.449,1063.61" style="fill:none;stroke:rgb(35,31,32);stroke-width:25px;"/>
    </g>
</svg>
