<?xml version="1.0" encoding="UTF-8" standalone="no"?>
<!DOCTYPE svg PUBLIC "-//W3C//DTD SVG 1.1//EN" "http://www.w3.org/Graphics/SVG/1.1/DTD/svg11.dtd">
<svg width="100%" height="100%" viewBox="0 0 150 140" version="1.1" xmlns="http://www.w3.org/2000/svg" xmlns:xlink="http://www.w3.org/1999/xlink" xml:space="preserve" xmlns:serif="http://www.serif.com/" style="fill-rule:evenodd;clip-rule:evenodd;stroke-miterlimit:10;">
    <path d="M21,61.6C20.6,62.4 16.1,69.5 16.1,69.5C16.1,69.5 15.5,70.6 14.7,69.8C13.9,69 10,63.3 10,63.3L7,56.8C7,56.8 6.9,56.5 7.7,56.1C8.3,55.5 32,40.3 32,40.3L33.4,42.3C33.4,42.3 24,46.3 22.1,51.2C20,56.7 20.3,58.5 21,61.6Z" style="fill:none;fill-rule:nonzero;stroke:rgb(35,31,32);stroke-width:0.75px;"/>
    <path d="M33.1,41.7L45.3,35.3L43.2,40.1" style="fill:none;fill-rule:nonzero;stroke:rgb(35,31,32);stroke-width:0.75px;"/>
    <path d="M32.7,40.9L46.3,33.5C46.3,33.5 46.7,33.7 46.5,34.2C46.3,34.7 45.3,35.4 45.3,35.4" style="fill:none;fill-rule:nonzero;stroke:rgb(35,31,32);stroke-width:0.75px;"/>
    <path d="M46.3,33.5C46.3,33.5 48.8,34.1 49.1,34.9C49.1,35.3 49,35.7 49,35.7L48.3,37.5L48.4,38.6L48.1,39.8" style="fill:none;fill-rule:nonzero;stroke:rgb(35,31,32);stroke-width:0.75px;"/>
    <path d="M46.5,34.2C46.5,34.2 46.7,34.4 46.2,35.9C45.6,37.4 44.5,40 44.5,40" style="fill:none;fill-rule:nonzero;stroke:rgb(35,31,32);stroke-width:0.75px;"/>
    <path d="M42.5,36.8L41.4,40.2" style="fill:none;fill-rule:nonzero;stroke:rgb(35,31,32);stroke-width:0.75px;"/>
    <path d="M42.2,37.7C42.2,37.7 42.3,38.6 43.5,39.3" style="fill:none;fill-rule:nonzero;stroke:rgb(35,31,32);stroke-width:0.75px;"/>
    <path d="M41.8,38.8C41.8,38.8 42.1,39.6 42.9,40.1" style="fill:none;fill-rule:nonzero;stroke:rgb(35,31,32);stroke-width:0.75px;"/>
    <path d="M43.1,36.5C43.1,36.5 42.9,37.2 43.9,38.4" style="fill:none;fill-rule:nonzero;stroke:rgb(35,31,32);stroke-width:0.75px;"/>
    <path d="M43.7,34.9C43.7,34.9 44.3,33.4 46.3,33.5" style="fill:none;fill-rule:nonzero;stroke:rgb(35,31,32);stroke-width:0.75px;"/>
    <path d="M48.3,39.2C48.3,39.2 50.7,37.1 49.2,35.1" style="fill:none;fill-rule:nonzero;stroke:rgb(35,31,32);stroke-width:0.75px;"/>
    <path d="M42.7,35.4C42.7,35.4 43.8,31.4 48.1,32.9C52.4,34.4 49.8,39.8 49.8,39.8" style="fill:none;fill-rule:nonzero;stroke:rgb(35,31,32);stroke-width:0.75px;"/>
    <path d="M33.5,42.2C33.5,42.2 41.3,39.2 51.2,39.8C72.8,41.6 92.9,48.7 105.7,57C118.5,65.3 124.8,71 129.8,78.7C134.8,86.4 133,92.3 133,92.3C133,92.3 131.6,101.5 122.9,104.2C112.4,108.9 97.2,107.7 92.6,106.7C88,105.7 49.7,99.4 27.6,73.5C23.2,68.5 21,61.6 21,61.6" style="fill:none;fill-rule:nonzero;stroke:rgb(35,31,32);stroke-width:0.75px;"/>
    <path d="M115.6,83.8C115.4,91 106.6,93 100.6,94C93.7,95.4 75.1,93.3 54.6,80.1C34.1,66.9 40.7,55.7 40.7,55.7" style="fill:none;fill-rule:nonzero;stroke:rgb(35,31,32);stroke-width:0.75px;"/>
    <path d="M38,57.8C38,57.8 43,49.3 66.9,53.1C90.8,56.9 115.6,76 115.8,85C117.1,91.5 113.9,94.1 113.9,94.1C113.9,94.1 104.6,102.8 86.3,98.7C68.6,95.3 46,83.7 38.8,72.4C36.9,69.8 34.3,64.1 38,57.8Z" style="fill:none;fill-rule:nonzero;stroke:rgb(35,31,32);stroke-width:0.75px;"/>
    <path d="M128.1,76.3L126.4,71.6L124.2,70.2" style="fill:none;fill-rule:nonzero;stroke:rgb(35,31,32);stroke-width:0.75px;"/>
    <path d="M124.8,68.9L127.3,70.9C127.3,70.9 130,77.4 130.3,78.4" style="fill:none;fill-rule:nonzero;stroke:rgb(35,31,32);stroke-width:0.75px;"/>
    <path d="M129.4,78.4L131.2,78.3C131.2,78.3 139.7,103.8 139.8,106.4L139.9,106.9C139.9,106.9 134.5,108.7 133.5,109.9L125.9,111.9C125.9,111.9 125.2,112.3 124.9,111.4C124.6,110.5 125.8,103 125.8,103" style="fill:none;fill-rule:nonzero;stroke:rgb(35,31,32);stroke-width:0.75px;"/>
    <path d="M132.1,95.6C132.1,95.6 132.6,96.9 132.5,97.1C132.4,97.3 130.3,109.6 130.3,109.6L137.9,107.7" style="fill:none;fill-rule:nonzero;stroke:rgb(35,31,32);stroke-width:0.75px;"/>
    <path d="M119.6,66.8C119.6,66.8 120.2,64 121.2,63.2C122.1,62.4 122.7,61.7 124.9,61.9C127.1,62.1 128.4,64.9 128.4,64.9C128.4,64.9 128.9,66.3 128.3,67.6C127.6,68.8 127,70.8 127,70.8" style="fill:none;fill-rule:nonzero;stroke:rgb(35,31,32);stroke-width:0.75px;"/>
    <path d="M125.9,73.5L126.4,71.6" style="fill:none;fill-rule:nonzero;stroke:rgb(35,31,32);stroke-width:0.75px;"/>
    <path d="M124.6,72C124.6,72 124.9,72 126.3,71.6" style="fill:none;fill-rule:nonzero;stroke:rgb(35,31,32);stroke-width:0.75px;"/>
    <path d="M125.1,72.6C125.1,72.6 125.4,72.7 126.1,72.4" style="fill:none;fill-rule:nonzero;stroke:rgb(35,31,32);stroke-width:0.75px;"/>
    <path d="M125.9,63.4C125.9,63.4 129.7,65.7 125.2,68.4" style="fill:none;fill-rule:nonzero;stroke:rgb(35,31,32);stroke-width:0.75px;"/>
    <path d="M127.6,68.8C127.6,68.8 125.9,69.6 125.7,69.6" style="fill:none;fill-rule:nonzero;stroke:rgb(35,31,32);stroke-width:0.75px;"/>
    <path d="M127.4,69.5C127.4,69.5 127.1,69.8 126.3,70.1" style="fill:none;fill-rule:nonzero;stroke:rgb(35,31,32);stroke-width:0.75px;"/>
    <path d="M121.1,65.9C121.1,65.9 120.7,64.2 123,62.8" style="fill:none;fill-rule:nonzero;stroke:rgb(35,31,32);stroke-width:0.75px;"/>
    <path d="M119.3,66.8L120.3,66.7L121.3,65.7L123.4,62.2L125.8,62.4C125.8,62.4 126.5,64.2 126.1,66.2C125.7,68.2 125.3,68.4 125.3,68.4L124.9,68.3L124.1,71.3C124.1,71.3 124.9,71.5 125.8,71.2" style="fill:none;fill-rule:nonzero;stroke:rgb(35,31,32);stroke-width:0.75px;"/>
    <path d="M122.9,70.2L125.7,62.4" style="fill:none;fill-rule:nonzero;stroke:rgb(35,31,32);stroke-width:0.75px;"/>
    <path d="M20.5,57.8C21,56 26,42.6 43.4,42.7C53.6,41.4 76.2,43.7 107.4,60.6C141,83.1 131.2,97.7 129.8,99.4" style="fill:none;fill-rule:nonzero;stroke:rgb(35,31,32);stroke-width:0.75px;"/>
    <path d="M51.2,39.8C51.2,39.8 54,37.6 54.6,36.4C55.8,35.1 58.4,35 59.5,35.4" style="fill:none;fill-rule:nonzero;stroke:rgb(35,31,32);stroke-width:0.75px;"/>
    <path d="M53.4,40C53.4,40 60,35.9 61.6,33.1C64.7,31.1 67,33.8 67,33.8L68.4,35.2C68.4,35.2 69,35.6 69.5,35.1" style="fill:none;fill-rule:nonzero;stroke:rgb(35,31,32);stroke-width:0.75px;"/>
    <path d="M54.4,40.2C54.4,40.2 60.6,35.9 61.8,33.9C63,31.9 63.7,32.4 63.7,32.4" style="fill:none;fill-rule:nonzero;stroke:rgb(35,31,32);stroke-width:0.75px;"/>
    <path d="M64,41.6C64,41.6 70,36.9 71.3,34.5C72.5,32.2 73.1,32 75.7,33.3C75.6,32.6 73.9,31.8 73.9,31.8C73.9,31.8 71.7,31.2 70.4,33.8C69.2,36.4 62.1,41.2 62.1,41.2" style="fill:none;fill-rule:nonzero;stroke:rgb(35,31,32);stroke-width:0.75px;"/>
    <path d="M82,36.2L78.3,35.8C78.3,35.8 76,35.1 75.8,33.3" style="fill:none;fill-rule:nonzero;stroke:rgb(35,31,32);stroke-width:0.75px;"/>
    <path d="M76.7,44.3C76.7,44.3 77.2,42.7 78.4,41.5C79.6,40.3 82.3,35.9 83,34.5C83.7,33.1 85.1,34 85.1,34C85.1,34 85.6,34.2 85.5,35.2C85.5,36.1 85.5,36.4 85.8,36.9C86.1,37.4 92.3,39.5 92.3,39.5C92.3,39.5 93.5,39.9 94.3,38.6C95.1,37.3 95.5,37.8 95.5,37.8L96.4,38.4C96.4,38.4 96.5,38.7 96.2,39.7C95.9,40.7 95.7,41.4 95.7,41.4C95.7,41.4 94.7,45.7 94.7,46.5C94.7,47.3 93.9,50.6 93.7,50.8" style="fill:none;fill-rule:nonzero;stroke:rgb(35,31,32);stroke-width:0.75px;"/>
    <path d="M95.3,37.7L94.1,41.5C94.1,41.5 92.8,46.3 92.6,47.1C92.4,47.9 91.7,49.6 91.7,49.6" style="fill:none;fill-rule:nonzero;stroke:rgb(35,31,32);stroke-width:0.75px;"/>
    <path d="M85.4,34.2C85.4,34.2 84.5,34.1 84.1,35.3C83.7,36.6 81.4,41.3 80.4,42.1C79.4,43 78.8,44.8 78.8,44.8" style="fill:none;fill-rule:nonzero;stroke:rgb(35,31,32);stroke-width:0.75px;"/>
    <path d="M95.8,41.3L100.4,43.9C100.4,43.9 101.9,44.5 102.9,43.8C103.9,43.1 105.4,43.4 105.4,43.4C105.4,43.4 105.9,43.5 105.6,44.9C105.2,46.3 104.6,51.3 104.9,52.2C105.2,53 105.6,55.7 105.2,56.8" style="fill:none;fill-rule:nonzero;stroke:rgb(35,31,32);stroke-width:0.75px;"/>
    <path d="M105.7,43.5C105.7,43.5 106.9,44.1 106.8,45.5C106.6,46.9 106,51.6 106.2,52.1C106.4,52.6 107.2,56 106.7,57.5" style="fill:none;fill-rule:nonzero;stroke:rgb(35,31,32);stroke-width:0.75px;"/>
    <path d="M106.4,48.4C106.4,48.4 107,50.2 109.3,49.6C109.3,49.6 114.4,48.2 113.9,52.7C112.6,57.7 115.1,63.5 115.1,63.5" style="fill:none;fill-rule:nonzero;stroke:rgb(35,31,32);stroke-width:0.75px;"/>
    <path d="M112.3,49.6C112.3,49.6 115.4,50.2 114.5,53.8C113.7,56.9 115.4,62.7 115.9,64.1" style="fill:none;fill-rule:nonzero;stroke:rgb(35,31,32);stroke-width:0.75px;"/>
    <path d="M119,66.7C119,66.7 117.6,63.5 118.2,60.3C118.8,57.1 114.8,55.4 114.4,55.7" style="fill:none;fill-rule:nonzero;stroke:rgb(35,31,32);stroke-width:0.75px;"/>
    <path d="M68.7,42.4C68.7,42.4 72.4,39.7 74.4,37.1C75.1,37.7 75.7,38.3 76.3,38.4C76.9,38.5 77.4,38.5 77.4,38.5L80.2,39" style="fill:none;fill-rule:nonzero;stroke:rgb(35,31,32);stroke-width:0.75px;"/>
    <path d="M90.1,49C90.6,48.3 91.8,42.6 91.8,42.6L85,40.1C85,40.1 81.8,44.9 81.6,45.9" style="fill:none;fill-rule:nonzero;stroke:rgb(35,31,32);stroke-width:0.75px;"/>
    <path d="M95.2,44.7C95.2,44.7 100,46.7 100.4,47.1C100.8,47.4 101.5,52.3 101.7,54.6" style="fill:none;fill-rule:nonzero;stroke:rgb(35,31,32);stroke-width:0.75px;"/>
    <path d="M106.2,52.4L109.5,54C109.5,54 110.9,59.4 110.6,60.3" style="fill:none;fill-rule:nonzero;stroke:rgb(35,31,32);stroke-width:0.75px;"/>
    <path d="M21.6,52.3L18.9,53.9L12.8,65.3L6.9,56.7" style="fill:none;fill-rule:nonzero;stroke:rgb(35,31,32);stroke-width:0.75px;"/>
    <path d="M132.2,96.5L131.4,96.9" style="fill:none;fill-rule:nonzero;stroke:rgb(35,31,32);stroke-width:0.75px;"/>
    <path d="M132.3,97.1L130.8,98.1" style="fill:none;fill-rule:nonzero;stroke:rgb(35,31,32);stroke-width:0.75px;"/>
    <path d="M132.1,98.1L130,99.3" style="fill:none;fill-rule:nonzero;stroke:rgb(35,31,32);stroke-width:0.75px;"/>
    <path d="M132.1,99.1L128.9,100.6" style="fill:none;fill-rule:nonzero;stroke:rgb(35,31,32);stroke-width:0.25px;"/>
    <path d="M131.9,100.2L126.6,102.4" style="fill:none;fill-rule:nonzero;stroke:rgb(35,31,32);stroke-width:0.25px;"/>
    <path d="M131.6,101.3L125.7,104.1" style="fill:none;fill-rule:nonzero;stroke:rgb(35,31,32);stroke-width:0.25px;"/>
    <path d="M131.4,102.6L125.5,105.3" style="fill:none;fill-rule:nonzero;stroke:rgb(35,31,32);stroke-width:0.25px;"/>
    <path d="M131.3,103.7L125.4,106.3" style="fill:none;fill-rule:nonzero;stroke:rgb(35,31,32);stroke-width:0.25px;"/>
    <path d="M130.9,104.9L125.3,107.4" style="fill:none;fill-rule:nonzero;stroke:rgb(35,31,32);stroke-width:0.25px;"/>
    <path d="M130.8,105.9C130.8,105.9 125.2,108.1 125.1,108.4" style="fill:none;fill-rule:nonzero;stroke:rgb(35,31,32);stroke-width:0.25px;"/>
    <path d="M130.6,107.1C130.6,107.1 125.2,109 125,109.3" style="fill:none;fill-rule:nonzero;stroke:rgb(35,31,32);stroke-width:0.25px;"/>
    <path d="M130.3,108.3C130.3,108.3 128.4,108.7 125,110.6" style="fill:none;fill-rule:nonzero;stroke:rgb(35,31,32);stroke-width:0.25px;"/>
    <path d="M130.2,109.6L125.2,111.6" style="fill:none;fill-rule:nonzero;stroke:rgb(35,31,32);stroke-width:0.75px;"/>
    <path d="M20.4,53.1L21,54.5" style="fill:none;fill-rule:nonzero;stroke:rgb(35,31,32);stroke-width:0.25px;"/>
    <path d="M19.7,53.5L20.8,55.7" style="fill:none;fill-rule:nonzero;stroke:rgb(35,31,32);stroke-width:0.25px;"/>
    <path d="M19,53.8L20.5,57.2" style="fill:none;fill-rule:nonzero;stroke:rgb(35,31,32);stroke-width:0.25px;"/>
    <path d="M18.5,54.7L20.5,58.9" style="fill:none;fill-rule:nonzero;stroke:rgb(35,31,32);stroke-width:0.25px;"/>
    <path d="M17.9,55.9L20.8,61.9" style="fill:none;fill-rule:nonzero;stroke:rgb(35,31,32);stroke-width:0.25px;"/>
    <path d="M17.4,56.7L20.3,62.8" style="fill:none;fill-rule:nonzero;stroke:rgb(35,31,32);stroke-width:0.25px;"/>
    <path d="M16.9,57.7L19.8,63.6" style="fill:none;fill-rule:nonzero;stroke:rgb(35,31,32);stroke-width:0.25px;"/>
    <path d="M16.3,58.8L19.2,64.4" style="fill:none;fill-rule:nonzero;stroke:rgb(35,31,32);stroke-width:0.25px;"/>
    <path d="M15.8,59.8L18.8,65.2" style="fill:none;fill-rule:nonzero;stroke:rgb(35,31,32);stroke-width:0.25px;"/>
    <path d="M15.3,60.6L18.3,66" style="fill:none;fill-rule:nonzero;stroke:rgb(35,31,32);stroke-width:0.25px;"/>
    <path d="M14.8,61.6L17.8,66.8" style="fill:none;fill-rule:nonzero;stroke:rgb(35,31,32);stroke-width:0.25px;"/>
    <path d="M14.3,62.5L17.3,67.5" style="fill:none;fill-rule:nonzero;stroke:rgb(35,31,32);stroke-width:0.25px;"/>
    <path d="M13.9,63.3L16.8,68.2" style="fill:none;fill-rule:nonzero;stroke:rgb(35,31,32);stroke-width:0.25px;"/>
    <path d="M13.4,64.3L16.4,69.1" style="fill:none;fill-rule:nonzero;stroke:rgb(35,31,32);stroke-width:0.25px;"/>
    <path d="M12.8,65.2L15.9,69.7" style="fill:none;fill-rule:nonzero;stroke:rgb(35,31,32);stroke-width:0.75px;"/>
    <path d="M95.7,64.3C95.7,64.3 118.3,80.8 110.6,90.8" style="fill:none;fill-rule:nonzero;stroke:rgb(35,31,32);stroke-width:0.75px;"/>
    <path d="M46.3,53.2C46.3,53.2 35.8,63.4 49,75.7" style="fill:none;fill-rule:nonzero;stroke:rgb(35,31,32);stroke-width:0.75px;"/>
    <path d="M98.4,66.4L99.1,66.4" style="fill:none;fill-rule:nonzero;stroke:rgb(35,31,32);stroke-width:0.75px;"/>
    <path d="M99.2,67L100,67" style="fill:none;fill-rule:nonzero;stroke:rgb(35,31,32);stroke-width:0.75px;"/>
    <path d="M99.9,67.7L101.1,67.8" style="fill:none;fill-rule:nonzero;stroke:rgb(35,31,32);stroke-width:0.75px;"/>
    <path d="M100.5,68.2L101.8,68.2" style="fill:none;fill-rule:nonzero;stroke:rgb(35,31,32);stroke-width:0.75px;"/>
    <path d="M99.6,67.4L100.4,67.3" style="fill:none;fill-rule:nonzero;stroke:rgb(35,31,32);stroke-width:0.75px;"/>
    <path d="M101.1,68.7L102.3,68.7" style="fill:none;fill-rule:nonzero;stroke:rgb(35,31,32);stroke-width:0.75px;"/>
    <path d="M101.6,69.2L102.8,69.1" style="fill:none;fill-rule:nonzero;stroke:rgb(35,31,32);stroke-width:0.75px;"/>
    <path d="M102.1,69.7L103.6,69.6" style="fill:none;fill-rule:nonzero;stroke:rgb(35,31,32);stroke-width:0.75px;"/>
    <path d="M102.7,70.2L104.2,70.2" style="fill:none;fill-rule:nonzero;stroke:rgb(35,31,32);stroke-width:0.75px;"/>
    <path d="M103.3,70.9L104.9,70.8" style="fill:none;fill-rule:nonzero;stroke:rgb(35,31,32);stroke-width:0.25px;"/>
    <path d="M103.9,71.4L105.4,71.2" style="fill:none;fill-rule:nonzero;stroke:rgb(35,31,32);stroke-width:0.25px;"/>
    <path d="M104.3,71.8L106,71.6" style="fill:none;fill-rule:nonzero;stroke:rgb(35,31,32);stroke-width:0.25px;"/>
    <path d="M104.7,72.3L106.6,72.1" style="fill:none;fill-rule:nonzero;stroke:rgb(35,31,32);stroke-width:0.25px;"/>
    <path d="M105.2,72.8L107.1,72.6" style="fill:none;fill-rule:nonzero;stroke:rgb(35,31,32);stroke-width:0.25px;"/>
    <path d="M105.7,73.4L107.7,73.2" style="fill:none;fill-rule:nonzero;stroke:rgb(35,31,32);stroke-width:0.25px;"/>
    <path d="M106.3,74L108.4,73.8" style="fill:none;fill-rule:nonzero;stroke:rgb(35,31,32);stroke-width:0.25px;"/>
    <path d="M106.8,74.7L109,74.3" style="fill:none;fill-rule:nonzero;stroke:rgb(35,31,32);stroke-width:0.25px;"/>
    <path d="M107.3,75.2L109.4,74.8" style="fill:none;fill-rule:nonzero;stroke:rgb(35,31,32);stroke-width:0.25px;"/>
    <path d="M107.8,75.8L110,75.3" style="fill:none;fill-rule:nonzero;stroke:rgb(35,31,32);stroke-width:0.25px;"/>
    <path d="M108.2,76.4L110.5,75.8" style="fill:none;fill-rule:nonzero;stroke:rgb(35,31,32);stroke-width:0.25px;"/>
    <path d="M108.6,77L111,76.5" style="fill:none;fill-rule:nonzero;stroke:rgb(35,31,32);stroke-width:0.25px;"/>
    <path d="M109,77.5L111.6,77.1" style="fill:none;fill-rule:nonzero;stroke:rgb(35,31,32);stroke-width:0.25px;"/>
    <path d="M109.4,78.2L112.2,77.8" style="fill:none;fill-rule:nonzero;stroke:rgb(35,31,32);stroke-width:0.25px;"/>
    <path d="M109.8,78.8L112.6,78.4" style="fill:none;fill-rule:nonzero;stroke:rgb(35,31,32);stroke-width:0.25px;"/>
    <path d="M110.1,79.5L113.1,79.1" style="fill:none;fill-rule:nonzero;stroke:rgb(35,31,32);stroke-width:0.25px;"/>
    <path d="M110.5,80.2L113.8,79.9" style="fill:none;fill-rule:nonzero;stroke:rgb(35,31,32);stroke-width:0.25px;"/>
    <path d="M111,81L114.3,80.7" style="fill:none;fill-rule:nonzero;stroke:rgb(35,31,32);stroke-width:0.25px;"/>
    <path d="M111.3,81.8L114.6,81.5" style="fill:none;fill-rule:nonzero;stroke:rgb(35,31,32);stroke-width:0.25px;"/>
    <path d="M111.6,82.7L115.2,82.3" style="fill:none;fill-rule:nonzero;stroke:rgb(35,31,32);stroke-width:0.25px;"/>
    <path d="M111.8,83.4L115.4,83" style="fill:none;fill-rule:nonzero;stroke:rgb(35,31,32);stroke-width:0.25px;"/>
    <path d="M112,84.1L115.5,83.6" style="fill:none;fill-rule:nonzero;stroke:rgb(35,31,32);stroke-width:0.25px;"/>
    <path d="M112.1,84.8L115.5,84.4" style="fill:none;fill-rule:nonzero;stroke:rgb(35,31,32);stroke-width:0.25px;"/>
    <path d="M112.2,86.1L115.2,86" style="fill:none;fill-rule:nonzero;stroke:rgb(35,31,32);stroke-width:0.25px;"/>
    <path d="M112.2,87L114.8,86.8" style="fill:none;fill-rule:nonzero;stroke:rgb(35,31,32);stroke-width:0.25px;"/>
    <path d="M112.1,87.6L114.5,87.5" style="fill:none;fill-rule:nonzero;stroke:rgb(35,31,32);stroke-width:0.25px;"/>
    <path d="M112,88.6L114.1,88.5" style="fill:none;fill-rule:nonzero;stroke:rgb(35,31,32);stroke-width:0.25px;"/>
    <path d="M111.8,89.3L113.5,89.3" style="fill:none;fill-rule:nonzero;stroke:rgb(35,31,32);stroke-width:0.25px;"/>
    <path d="M111.3,89.7L112.6,89.7" style="fill:none;fill-rule:nonzero;stroke:rgb(35,31,32);stroke-width:0.25px;"/>
    <path d="M111,90.2L111.8,90.2" style="fill:none;fill-rule:nonzero;stroke:rgb(35,31,32);stroke-width:0.75px;"/>
    <path d="M47.6,74.7L47.9,74.6" style="fill:none;fill-rule:nonzero;stroke:rgb(35,31,32);stroke-width:0.75px;"/>
    <path d="M48,75L48.2,74.9" style="fill:none;fill-rule:nonzero;stroke:rgb(35,31,32);stroke-width:0.75px;"/>
    <path d="M47.2,74.3L47.5,74.3" style="fill:none;fill-rule:nonzero;stroke:rgb(35,31,32);stroke-width:0.75px;"/>
    <path d="M46.9,74L47.3,74" style="fill:none;fill-rule:nonzero;stroke:rgb(35,31,32);stroke-width:0.75px;"/>
    <path d="M46.5,73.6L47,73.7" style="fill:none;fill-rule:nonzero;stroke:rgb(35,31,32);stroke-width:0.75px;"/>
    <path d="M46.1,73.3L46.7,73.3" style="fill:none;fill-rule:nonzero;stroke:rgb(35,31,32);stroke-width:0.75px;"/>
    <path d="M45.8,72.9L46.4,72.9" style="fill:none;fill-rule:nonzero;stroke:rgb(35,31,32);stroke-width:0.75px;"/>
    <path d="M45.5,72.6L46.1,72.6" style="fill:none;fill-rule:nonzero;stroke:rgb(35,31,32);stroke-width:0.75px;"/>
    <path d="M45.2,72.3L45.8,72.3" style="fill:none;fill-rule:nonzero;stroke:rgb(35,31,32);stroke-width:0.75px;"/>
    <path d="M44.8,71.9L45.6,71.9" style="fill:none;fill-rule:nonzero;stroke:rgb(35,31,32);stroke-width:0.75px;"/>
    <path d="M44.5,71.5L45.3,71.5" style="fill:none;fill-rule:nonzero;stroke:rgb(35,31,32);stroke-width:0.25px;"/>
    <path d="M44.3,71.2L45.1,71.2" style="fill:none;fill-rule:nonzero;stroke:rgb(35,31,32);stroke-width:0.25px;"/>
    <path d="M43.9,70.7L44.8,70.8" style="fill:none;fill-rule:nonzero;stroke:rgb(35,31,32);stroke-width:0.25px;"/>
    <path d="M43.6,70.3L44.6,70.4" style="fill:none;fill-rule:nonzero;stroke:rgb(35,31,32);stroke-width:0.25px;"/>
    <path d="M43.3,70L44.4,70" style="fill:none;fill-rule:nonzero;stroke:rgb(35,31,32);stroke-width:0.25px;"/>
    <path d="M43,69.5L44.1,69.6" style="fill:none;fill-rule:nonzero;stroke:rgb(35,31,32);stroke-width:0.25px;"/>
    <path d="M42.7,69.1L43.9,69.2" style="fill:none;fill-rule:nonzero;stroke:rgb(35,31,32);stroke-width:0.25px;"/>
    <path d="M42.5,68.7L43.7,68.7" style="fill:none;fill-rule:nonzero;stroke:rgb(35,31,32);stroke-width:0.25px;"/>
    <path d="M42.2,68.3L43.5,68.3" style="fill:none;fill-rule:nonzero;stroke:rgb(35,31,32);stroke-width:0.25px;"/>
    <path d="M41.9,67.8L43.3,67.8" style="fill:none;fill-rule:nonzero;stroke:rgb(35,31,32);stroke-width:0.25px;"/>
    <path d="M41.6,67.3L43.1,67.4" style="fill:none;fill-rule:nonzero;stroke:rgb(35,31,32);stroke-width:0.25px;"/>
    <path d="M41.4,66.8L43,66.9" style="fill:none;fill-rule:nonzero;stroke:rgb(35,31,32);stroke-width:0.25px;"/>
    <path d="M41.2,66.4L42.9,66.5" style="fill:none;fill-rule:nonzero;stroke:rgb(35,31,32);stroke-width:0.25px;"/>
    <path d="M41,65.8L42.7,66" style="fill:none;fill-rule:nonzero;stroke:rgb(35,31,32);stroke-width:0.25px;"/>
    <path d="M40.7,65.3L42.6,65.4" style="fill:none;fill-rule:nonzero;stroke:rgb(35,31,32);stroke-width:0.25px;"/>
    <path d="M40.6,64.8L42.6,65" style="fill:none;fill-rule:nonzero;stroke:rgb(35,31,32);stroke-width:0.25px;"/>
    <path d="M40.3,64.2L42.5,64.4" style="fill:none;fill-rule:nonzero;stroke:rgb(35,31,32);stroke-width:0.25px;"/>
    <path d="M40.2,63.7L42.4,63.9" style="fill:none;fill-rule:nonzero;stroke:rgb(35,31,32);stroke-width:0.25px;"/>
    <path d="M40,63.2L42.4,63.3" style="fill:none;fill-rule:nonzero;stroke:rgb(35,31,32);stroke-width:0.25px;"/>
    <path d="M39.9,62.5L42.4,62.7" style="fill:none;fill-rule:nonzero;stroke:rgb(35,31,32);stroke-width:0.25px;"/>
    <path d="M39.9,61.9L42.4,62.1" style="fill:none;fill-rule:nonzero;stroke:rgb(35,31,32);stroke-width:0.25px;"/>
    <path d="M39.8,61.2L42.5,61.4" style="fill:none;fill-rule:nonzero;stroke:rgb(35,31,32);stroke-width:0.25px;"/>
    <path d="M39.7,60.6L42.5,60.8" style="fill:none;fill-rule:nonzero;stroke:rgb(35,31,32);stroke-width:0.25px;"/>
    <path d="M39.7,60.1L42.6,60.2" style="fill:none;fill-rule:nonzero;stroke:rgb(35,31,32);stroke-width:0.25px;"/>
    <path d="M39.8,59.4L42.8,59.6" style="fill:none;fill-rule:nonzero;stroke:rgb(35,31,32);stroke-width:0.25px;"/>
    <path d="M39.8,58.8L43,59" style="fill:none;fill-rule:nonzero;stroke:rgb(35,31,32);stroke-width:0.25px;"/>
    <path d="M40,58.1L43.2,58.4" style="fill:none;fill-rule:nonzero;stroke:rgb(35,31,32);stroke-width:0.25px;"/>
    <path d="M40.1,57.4L43.5,57.7" style="fill:none;fill-rule:nonzero;stroke:rgb(35,31,32);stroke-width:0.25px;"/>
    <path d="M40.4,56.6L43.8,57" style="fill:none;fill-rule:nonzero;stroke:rgb(35,31,32);stroke-width:0.25px;"/>
    <path d="M44.1,56.3L40.8,55.7C40.8,55.7 54.7,46.6 83.2,58.5C115.8,72.9 115.3,85.5 115.3,85.2L112.2,85.4" style="fill:none;fill-rule:nonzero;stroke:rgb(35,31,32);stroke-width:0.25px;"/>
    <path d="M41.1,55.3L44.5,55.6" style="fill:none;fill-rule:nonzero;stroke:rgb(35,31,32);stroke-width:0.25px;"/>
    <path d="M42.3,54.6L44.9,54.9" style="fill:none;fill-rule:nonzero;stroke:rgb(35,31,32);stroke-width:0.25px;"/>
    <path d="M43.2,54.2L45.3,54.4" style="fill:none;fill-rule:nonzero;stroke:rgb(35,31,32);stroke-width:0.75px;"/>
    <path d="M44.4,53.7L45.7,53.9" style="fill:none;fill-rule:nonzero;stroke:rgb(35,31,32);stroke-width:0.75px;"/>
    <path d="M135.1,108.4L133.2,109.8" style="fill:none;fill-rule:nonzero;stroke:rgb(35,31,32);stroke-width:0.75px;"/>
    <path d="M134.3,108.6L132.6,110.2" style="fill:none;fill-rule:nonzero;stroke:rgb(35,31,32);stroke-width:0.75px;"/>
    <path d="M133.9,108.7L132.4,110.1" style="fill:none;fill-rule:nonzero;stroke:rgb(35,31,32);stroke-width:0.75px;"/>
    <path d="M133.1,109L132,110.2" style="fill:none;fill-rule:nonzero;stroke:rgb(35,31,32);stroke-width:0.75px;"/>
    <path d="M132.6,109.1L131.5,110.5" style="fill:none;fill-rule:nonzero;stroke:rgb(35,31,32);stroke-width:0.75px;"/>
    <path d="M132.2,109.2L131.2,110.5" style="fill:none;fill-rule:nonzero;stroke:rgb(35,31,32);stroke-width:0.75px;"/>
    <path d="M131.7,109.4L130.8,110.6" style="fill:none;fill-rule:nonzero;stroke:rgb(35,31,32);stroke-width:0.75px;"/>
    <path d="M131.3,109.3L130.3,110.8" style="fill:none;fill-rule:nonzero;stroke:rgb(35,31,32);stroke-width:0.75px;"/>
    <path d="M130.8,109.4L130,110.7" style="fill:none;fill-rule:nonzero;stroke:rgb(35,31,32);stroke-width:0.75px;"/>
    <path d="M129.8,110.8L130.3,109.7" style="fill:none;fill-rule:nonzero;stroke:rgb(35,31,32);stroke-width:0.75px;"/>
    <path d="M129.4,110.9L130,109.7" style="fill:none;fill-rule:nonzero;stroke:rgb(35,31,32);stroke-width:0.75px;"/>
    <path d="M129.6,109.8L129,111" style="fill:none;fill-rule:nonzero;stroke:rgb(35,31,32);stroke-width:0.75px;"/>
    <path d="M129.2,110.1L128.8,111" style="fill:none;fill-rule:nonzero;stroke:rgb(35,31,32);stroke-width:0.75px;"/>
    <path d="M128.9,110.3L128.6,111.2" style="fill:none;fill-rule:nonzero;stroke:rgb(35,31,32);stroke-width:0.75px;"/>
    <path d="M128.6,110.3L128.3,111.2" style="fill:none;fill-rule:nonzero;stroke:rgb(35,31,32);stroke-width:0.75px;"/>
    <path d="M128.2,110.5L128,111.3" style="fill:none;fill-rule:nonzero;stroke:rgb(35,31,32);stroke-width:0.75px;"/>
    <path d="M127.9,110.7L127.7,111.5" style="fill:none;fill-rule:nonzero;stroke:rgb(35,31,32);stroke-width:0.75px;"/>
    <path d="M127.6,110.8L127.4,111.5" style="fill:none;fill-rule:nonzero;stroke:rgb(35,31,32);stroke-width:0.75px;"/>
    <path d="M127.3,110.8L127.1,111.6" style="fill:none;fill-rule:nonzero;stroke:rgb(35,31,32);stroke-width:0.75px;"/>
    <path d="M127,111L126.8,111.8" style="fill:none;fill-rule:nonzero;stroke:rgb(35,31,32);stroke-width:0.75px;"/>
    <path d="M126.7,111.1L126.6,111.7" style="fill:none;fill-rule:nonzero;stroke:rgb(35,31,32);stroke-width:0.75px;"/>
    <path d="M126.5,111.2L126.4,111.9" style="fill:none;fill-rule:nonzero;stroke:rgb(35,31,32);stroke-width:0.75px;"/>
    <path d="M126.3,111.3L126.2,111.9" style="fill:none;fill-rule:nonzero;stroke:rgb(35,31,32);stroke-width:0.75px;"/>
    <path d="M126,111.4L126,111.9" style="fill:none;fill-rule:nonzero;stroke:rgb(35,31,32);stroke-width:0.75px;"/>
    <path d="M125.9,111.4L125.8,111.8" style="fill:none;fill-rule:nonzero;stroke:rgb(35,31,32);stroke-width:0.75px;"/>
    <path d="M125.6,111.5L125.6,111.9" style="fill:none;fill-rule:nonzero;stroke:rgb(35,31,32);stroke-width:0.75px;"/>
    <path d="M8.6,59.2L8.1,59.1" style="fill:none;fill-rule:nonzero;stroke:rgb(35,31,32);stroke-width:0.75px;"/>
    <path d="M8.2,59.5L8.7,59.5" style="fill:none;fill-rule:nonzero;stroke:rgb(35,31,32);stroke-width:0.75px;"/>
    <path d="M8.3,59.7L8.8,59.8" style="fill:none;fill-rule:nonzero;stroke:rgb(35,31,32);stroke-width:0.75px;"/>
    <path d="M8.4,59.9L9,60" style="fill:none;fill-rule:nonzero;stroke:rgb(35,31,32);stroke-width:0.75px;"/>
    <path d="M8.6,60.1L9.3,60.2" style="fill:none;fill-rule:nonzero;stroke:rgb(35,31,32);stroke-width:0.75px;"/>
    <path d="M8.7,60.4L9.3,60.5" style="fill:none;fill-rule:nonzero;stroke:rgb(35,31,32);stroke-width:0.75px;"/>
    <path d="M8.9,60.7L9.6,60.7" style="fill:none;fill-rule:nonzero;stroke:rgb(35,31,32);stroke-width:0.75px;"/>
    <path d="M8.9,61L9.6,60.9" style="fill:none;fill-rule:nonzero;stroke:rgb(35,31,32);stroke-width:0.75px;"/>
    <path d="M9,61.2L9.8,61.2" style="fill:none;fill-rule:nonzero;stroke:rgb(35,31,32);stroke-width:0.75px;"/>
    <path d="M9.2,61.4L9.9,61.3" style="fill:none;fill-rule:nonzero;stroke:rgb(35,31,32);stroke-width:0.75px;"/>
    <path d="M9.1,61.6L10.1,61.5" style="fill:none;fill-rule:nonzero;stroke:rgb(35,31,32);stroke-width:0.75px;"/>
    <path d="M9.3,61.8L10.3,61.8" style="fill:none;fill-rule:nonzero;stroke:rgb(35,31,32);stroke-width:0.75px;"/>
    <path d="M9.4,62L10.4,62" style="fill:none;fill-rule:nonzero;stroke:rgb(35,31,32);stroke-width:0.75px;"/>
    <path d="M9.6,62.2L10.7,62.4" style="fill:none;fill-rule:nonzero;stroke:rgb(35,31,32);stroke-width:0.75px;"/>
    <path d="M9.7,62.5L10.9,62.7" style="fill:none;fill-rule:nonzero;stroke:rgb(35,31,32);stroke-width:0.75px;"/>
    <path d="M9.8,62.7L11,62.9" style="fill:none;fill-rule:nonzero;stroke:rgb(35,31,32);stroke-width:0.75px;"/>
    <path d="M9.9,62.9L11.2,63.2" style="fill:none;fill-rule:nonzero;stroke:rgb(35,31,32);stroke-width:0.75px;"/>
    <path d="M10,63.2L11.5,63.6" style="fill:none;fill-rule:nonzero;stroke:rgb(35,31,32);stroke-width:0.75px;"/>
    <path d="M10.3,63.6L11.8,63.9" style="fill:none;fill-rule:nonzero;stroke:rgb(35,31,32);stroke-width:0.75px;"/>
    <path d="M10.5,63.9L11.8,64.1" style="fill:none;fill-rule:nonzero;stroke:rgb(35,31,32);stroke-width:0.75px;"/>
    <path d="M10.7,64.1L12.1,64.5" style="fill:none;fill-rule:nonzero;stroke:rgb(35,31,32);stroke-width:0.75px;"/>
    <path d="M10.9,64.5L12.3,64.8" style="fill:none;fill-rule:nonzero;stroke:rgb(35,31,32);stroke-width:0.75px;"/>
    <path d="M11.2,64.8L12.5,65" style="fill:none;fill-rule:nonzero;stroke:rgb(35,31,32);stroke-width:0.75px;"/>
    <path d="M11.3,65.1L12.7,65.3" style="fill:none;fill-rule:nonzero;stroke:rgb(35,31,32);stroke-width:0.75px;"/>
    <path d="M11.5,65.4L13,65.5" style="fill:none;fill-rule:nonzero;stroke:rgb(35,31,32);stroke-width:0.75px;"/>
    <path d="M11.8,65.7L13,65.8" style="fill:none;fill-rule:nonzero;stroke:rgb(35,31,32);stroke-width:0.75px;"/>
    <path d="M11.9,66L13.2,66" style="fill:none;fill-rule:nonzero;stroke:rgb(35,31,32);stroke-width:0.75px;"/>
    <path d="M12.1,66.3L13.4,66.2" style="fill:none;fill-rule:nonzero;stroke:rgb(35,31,32);stroke-width:0.75px;"/>
    <path d="M12.4,66.5L13.5,66.4" style="fill:none;fill-rule:nonzero;stroke:rgb(35,31,32);stroke-width:0.75px;"/>
    <path d="M12.5,66.8L13.8,66.7" style="fill:none;fill-rule:nonzero;stroke:rgb(35,31,32);stroke-width:0.75px;"/>
    <path d="M12.7,67L14,67" style="fill:none;fill-rule:nonzero;stroke:rgb(35,31,32);stroke-width:0.75px;"/>
    <path d="M12.9,67.3L14.1,67.3" style="fill:none;fill-rule:nonzero;stroke:rgb(35,31,32);stroke-width:0.75px;"/>
    <path d="M13,67.5L14.3,67.5" style="fill:none;fill-rule:nonzero;stroke:rgb(35,31,32);stroke-width:0.75px;"/>
    <path d="M13.2,67.8L14.5,67.8" style="fill:none;fill-rule:nonzero;stroke:rgb(35,31,32);stroke-width:0.75px;"/>
    <path d="M13.4,68L14.6,68" style="fill:none;fill-rule:nonzero;stroke:rgb(35,31,32);stroke-width:0.75px;"/>
    <path d="M13.5,68.3L14.8,68.3" style="fill:none;fill-rule:nonzero;stroke:rgb(35,31,32);stroke-width:0.75px;"/>
    <path d="M13.7,68.5L14.9,68.5" style="fill:none;fill-rule:nonzero;stroke:rgb(35,31,32);stroke-width:0.75px;"/>
    <path d="M14,68.8L15.2,68.8" style="fill:none;fill-rule:nonzero;stroke:rgb(35,31,32);stroke-width:0.75px;"/>
    <path d="M14.2,69.1L15.3,69" style="fill:none;fill-rule:nonzero;stroke:rgb(35,31,32);stroke-width:0.75px;"/>
    <path d="M14.4,69.3L15.4,69.2" style="fill:none;fill-rule:nonzero;stroke:rgb(35,31,32);stroke-width:0.75px;"/>
    <path d="M14.6,69.6L15.5,69.5" style="fill:none;fill-rule:nonzero;stroke:rgb(35,31,32);stroke-width:0.75px;"/>
    <path d="M14.9,69.8L15.7,69.6" style="fill:none;fill-rule:nonzero;stroke:rgb(35,31,32);stroke-width:0.75px;"/>
    <path d="M126.1,64.1L126.6,64.1" style="fill:none;fill-rule:nonzero;stroke:rgb(35,31,32);stroke-width:0.75px;"/>
    <path d="M126,64.5L127,64.6" style="fill:none;fill-rule:nonzero;stroke:rgb(35,31,32);stroke-width:0.75px;"/>
    <path d="M126.1,65L127.2,65" style="fill:none;fill-rule:nonzero;stroke:rgb(35,31,32);stroke-width:0.75px;"/>
    <path d="M126.2,65.5L127.4,65.5" style="fill:none;fill-rule:nonzero;stroke:rgb(35,31,32);stroke-width:0.75px;"/>
    <path d="M126.1,66L127.4,66.1" style="fill:none;fill-rule:nonzero;stroke:rgb(35,31,32);stroke-width:0.75px;"/>
    <path d="M126,66.5L127.2,66.6" style="fill:none;fill-rule:nonzero;stroke:rgb(35,31,32);stroke-width:0.75px;"/>
    <path d="M125.9,66.9L127,67" style="fill:none;fill-rule:nonzero;stroke:rgb(35,31,32);stroke-width:0.75px;"/>
    <path d="M125.8,67.3L126.5,67.4" style="fill:none;fill-rule:nonzero;stroke:rgb(35,31,32);stroke-width:0.75px;"/>
    <path d="M125.7,67.7L126.1,67.8" style="fill:none;fill-rule:nonzero;stroke:rgb(35,31,32);stroke-width:0.75px;"/>
    <path d="M122.1,63.5L122.4,63.5" style="fill:none;fill-rule:nonzero;stroke:rgb(35,31,32);stroke-width:0.75px;"/>
    <path d="M121.6,63.9L122.2,64" style="fill:none;fill-rule:nonzero;stroke:rgb(35,31,32);stroke-width:0.75px;"/>
    <path d="M121.4,64.3L122,64.4" style="fill:none;fill-rule:nonzero;stroke:rgb(35,31,32);stroke-width:0.75px;"/>
    <path d="M121.2,64.7L121.7,64.8" style="fill:none;fill-rule:nonzero;stroke:rgb(35,31,32);stroke-width:0.75px;"/>
    <path d="M121.1,65.1L121.6,65.2" style="fill:none;fill-rule:nonzero;stroke:rgb(35,31,32);stroke-width:0.75px;"/>
    <path d="M43.9,36.1C43.9,36.1 43.6,36.7 44.4,37.4" style="fill:none;fill-rule:nonzero;stroke:rgb(35,31,32);stroke-width:0.75px;"/>
    <path d="M49.1,36L49.5,36" style="fill:none;fill-rule:nonzero;stroke:rgb(35,31,32);stroke-width:0.75px;"/>
    <path d="M48.9,36.4L49.7,36.5" style="fill:none;fill-rule:nonzero;stroke:rgb(35,31,32);stroke-width:0.75px;"/>
    <path d="M48.6,36.8L49.7,36.9" style="fill:none;fill-rule:nonzero;stroke:rgb(35,31,32);stroke-width:0.75px;"/>
    <path d="M48.6,37.3L49.5,37.4" style="fill:none;fill-rule:nonzero;stroke:rgb(35,31,32);stroke-width:0.75px;"/>
    <path d="M48.4,37.6L49.3,37.8" style="fill:none;fill-rule:nonzero;stroke:rgb(35,31,32);stroke-width:0.75px;"/>
    <path d="M48.4,38.1L49.1,38.2" style="fill:none;fill-rule:nonzero;stroke:rgb(35,31,32);stroke-width:0.75px;"/>
    <path d="M44,36.9L44.5,36.9" style="fill:none;fill-rule:nonzero;stroke:rgb(35,31,32);stroke-width:0.75px;"/>
    <path d="M43.9,36.5L44.8,36.5" style="fill:none;fill-rule:nonzero;stroke:rgb(35,31,32);stroke-width:0.75px;"/>
    <path d="M44,36L45,36.1" style="fill:none;fill-rule:nonzero;stroke:rgb(35,31,32);stroke-width:0.75px;"/>
    <path d="M44.5,34L44.7,34.3" style="fill:none;fill-rule:nonzero;stroke:rgb(35,31,32);stroke-width:0.75px;"/>
    <path d="M45,33.7L45.2,34.1" style="fill:none;fill-rule:nonzero;stroke:rgb(35,31,32);stroke-width:0.75px;"/>
</svg>
